# xmcd
#
# Track frame offsets: 
#        150
#        12403
#        27939
#        46281
#        57351
#        77842
#        92207
#        109597
#        125609
#        140188
#        153729
#        164819
#        184013
#        199123
#        216892
#        233053
#        248771
#        263252
#
# Disc length: 3722 seconds
#
# Revision: 0
# Processed by: cddbd v1.5.2PL0 Copyright (c) Steve Scherf et al.
# Submitted via: ExactAudioCopy v0.99pb1
#
DISCID=fe0e8812
DTITLE=Heikki Raatikainen - Laulu soi
DYEAR=2006
DGENRE=Gospel
TTITLE0=Ikoitkaa riemuitkaa
TTITLE1=Lastenkamarissa
TTITLE2=Kuin pieni kukka
TTITLE3=Sinuun luotan
TTITLE4=Kerran lähti mies
TTITLE5=Niin kuin aalto
TTITLE6=Olen matkalla vain
TTITLE7=Sydämeni etsii
TTITLE8=Leivonen
TTITLE9=Kaikki muuttui
TTITLE10=Hei kuulkaat te
TTITLE11=Rakkaudestasi kiitän
TTITLE12=Jeesus tulee takaisin
TTITLE13=Hiljainen kiitos
TTITLE14=Taivaan valtakunta
TTITLE15=Uusi luomus
TTITLE16=Rakkauden satama
TTITLE17=Niin kuin tuuli
EXTD=
EXTT0=
EXTT1=
EXTT2=
EXTT3=
EXTT4=
EXTT5=
EXTT6=
EXTT7=
EXTT8=
EXTT9=
EXTT10=
EXTT11=
EXTT12=
EXTT13=
EXTT14=
EXTT15=
EXTT16=
EXTT17=
PLAYORDER=
